<svg width="48" height="48" viewBox="0 0 48 48" fill="none" xmlns="http://www.w3.org/2000/svg">
<rect width="48" height="48" rx="24" fill="#670784"/>
<path d="M13.75 32.5C15.1666 31.4167 16.75 30.5625 18.5 29.9375C20.25 29.3125 22.0833 29 24 29C25.9166 29 27.75 29.3125 29.5 29.9375C31.25 30.5625 32.8333 31.4167 34.25 32.5C35.2222 31.3611 35.9791 30.0695 36.5208 28.625C37.0625 27.1806 37.3333 25.6389 37.3333 24C37.3333 20.3056 36.0347 17.1597 33.4375 14.5625C30.8403 11.9653 27.6944 10.6667 24 10.6667C20.3055 10.6667 17.1597 11.9653 14.5625 14.5625C11.9653 17.1597 10.6666 20.3056 10.6666 24C10.6666 25.6389 10.9375 27.1806 11.4791 28.625C12.0208 30.0695 12.7778 31.3611 13.75 32.5ZM24 25.6667C22.3611 25.6667 20.9791 25.1042 19.8541 23.9792C18.7291 22.8542 18.1666 21.4722 18.1666 19.8333C18.1666 18.1945 18.7291 16.8125 19.8541 15.6875C20.9791 14.5625 22.3611 14 24 14C25.6389 14 27.0208 14.5625 28.1458 15.6875C29.2708 16.8125 29.8333 18.1945 29.8333 19.8333C29.8333 21.4722 29.2708 22.8542 28.1458 23.9792C27.0208 25.1042 25.6389 25.6667 24 25.6667ZM24 40.6667C21.6944 40.6667 19.5278 40.2292 17.5 39.3542C15.4722 38.4792 13.7083 37.2917 12.2083 35.7917C10.7083 34.2917 9.52081 32.5278 8.64581 30.5C7.77081 28.4722 7.33331 26.3056 7.33331 24C7.33331 21.6945 7.77081 19.5278 8.64581 17.5C9.52081 15.4722 10.7083 13.7083 12.2083 12.2083C13.7083 10.7083 15.4722 9.52084 17.5 8.64584C19.5278 7.77084 21.6944 7.33334 24 7.33334C26.3055 7.33334 28.4722 7.77084 30.5 8.64584C32.5278 9.52084 34.2916 10.7083 35.7916 12.2083C37.2916 13.7083 38.4791 15.4722 39.3541 17.5C40.2291 19.5278 40.6666 21.6945 40.6666 24C40.6666 26.3056 40.2291 28.4722 39.3541 30.5C38.4791 32.5278 37.2916 34.2917 35.7916 35.7917C34.2916 37.2917 32.5278 38.4792 30.5 39.3542C28.4722 40.2292 26.3055 40.6667 24 40.6667Z" fill="white"/>
</svg>
